<svg xmlns="http://www.w3.org/2000/svg" width="56.44155840295468" height="25.519480532348496" fill="none" style=""><rect id="backgroundrect" width="100%" height="100%" x="0" y="0" fill="none" stroke="none" class="" style=""/>
<g class="currentLayer" style=""><title>Layer 1</title><path d="M1.5009198472872152,24.254491534014665 V1.2674615693175926 H6.218111816841611 V10.973114146452495 L10.392110176915562,1.2674615693175926 H14.966344744710986 L10.620822415823726,11.597413763945436 L15.280824073209708,24.254491534014665 H10.535055326233165 L6.961426593293139,13.952878909496434 L6.218111816841611,15.258317423898195 V24.254491534014665 H1.5009198472872152 zM17.33229117327345,24.254491534014665 V1.2674615693175926 H22.020892070890763 V24.254491534014665 H17.33229117327345 zM25.567054914426194,24.254491534014665 V1.2674615693175926 H28.854793348731015 L34.00081872416465,13.243401456017219 V1.2674615693175926 H37.8889267856034 V24.254491534014665 H34.74413350061617 L29.598108125182538,11.540655567667098 V24.254491534014665 H25.567054914426194 zM47.85822781004714,24.56666161354552 C46.161979406037645,24.56666161354552 44.81829500245221,24.26391744875374 43.8271745992908,23.658530473092124 C42.836156299807485,23.053143497430494 42.12143055321949,22.19224328459443 41.68299735952677,21.076032542427775 C41.263759657313884,19.940868616861028 41.054038702529354,18.58809782092001 41.054038702529354,17.017821508526648 V8.447374412066484 C41.054038702529354,6.877067693496548 41.263759657313884,5.533783624647768 41.68299735952677,4.417542476304532 C42.12143055321949,3.3013013279612937 42.836156299807485,2.4499283837862316 43.8271745992908,1.863423643779352 C44.81829500245221,1.2769219443901263 46.161979406037645,0.9836706892798268 47.85822781004714,0.9836706892798268 C49.57356960185835,0.9836706892798268 50.926851751183705,1.2863813059234415 51.917870050667,1.8918027419185202 C52.92808384163013,2.478307481925405 53.64280958821812,3.3296804261004653 54.06204729043103,4.445921574443703 C54.500480484123734,5.543250080955622 54.71959497729198,6.877067693496548 54.71959497729198,8.447374412066484 V17.017821508526648 C54.71959497729198,18.58809782092001 54.500480484123734,19.940868616861028 54.06204729043103,21.076032542427775 C53.64280958821812,22.19224328459443 52.92808384163013,23.053143497430494 51.917870050667,23.658530473092124 C50.926851751183705,24.26391744875374 49.57356960185835,24.56666161354552 47.85822781004714,24.56666161354552 zM47.85822781004714,21.189548934984447 C48.468195182920965,21.189548934984447 48.91602191499738,21.057079359027686 49.20191221363259,20.79224156103609 C49.48780251226779,20.5084505796444 49.678430079250624,20.13952230383521 49.77369281090299,19.68545673360851 C49.869057646233465,19.212437979981722 49.9166379602206,18.71114148213769 49.9166379602206,18.181364532232568 V7.312210486499737 C49.9166379602206,6.78246394277119 49.869057646233465,6.290562953489665 49.77369281090299,5.836497383262967 C49.678430079250624,5.382431813036268 49.48780251226779,5.022959858142732 49.20191221363259,4.758091653974558 C48.91602191499738,4.47430067258287 48.468195182920965,4.332405181887027 47.85822781004714,4.332405181887027 C47.28644721277673,4.332405181887027 46.85761176482394,4.47430067258287 46.571721466188734,4.758091653974558 C46.28583116755354,5.022959858142732 46.095305704248794,5.382431813036268 45.99994086891833,5.836497383262967 C45.90467813726596,6.290562953489665 45.85699571960072,6.78246394277119 45.85699571960072,7.312210486499737 V18.181364532232568 C45.85699571960072,18.71114148213769 45.89518249520415,19.212437979981722 45.97135183905482,19.68545673360851 C46.066716674385276,20.13952230383521 46.25724213769003,20.5084505796444 46.54313243632523,20.79224156103609 C46.82902273496043,21.057079359027686 47.26745592865311,21.189548934984447 47.85822781004714,21.189548934984447 z" fill="white" id="svg_1" class=""/></g></svg>